<svg width="658" height="135" viewBox="0 0 658 135" fill="none" xmlns="http://www.w3.org/2000/svg">
<g clip-path="url(#clip0)">
<path d="M35.7183 23.6147C35.6484 7.30329 48.8283 0 48.8283 0C48.8283 0 53.2083 19.2266 68.4035 37.8581C86.113 59.5662 94.3342 71.6106 94.3342 87.3167C94.3342 113.655 73.2125 135.01 47.1621 135.01C21.1117 135.01 0 113.645 0 87.3066C0 61.2004 23.2867 29.082 28.7941 23.8164C28.7941 23.8164 29.1134 31.0592 32.5854 41.1063C35.7083 50.1143 35.0997 59.9596 31.2285 68.6651C28.9737 73.7391 27.2277 80.0235 27.2277 87.3066C27.2277 98.4331 36.1473 107.461 47.1621 107.461C58.1769 107.461 66.4779 97.5353 66.4779 87.3066C66.4879 67.495 35.838 47.9657 35.7183 23.6147Z" fill="url(#paint0_linear)"/>
<path d="M65.0811 79.6402C65.9691 82.2024 66.4879 84.7444 66.4879 87.3067C66.4879 97.5353 58.1769 107.461 47.1721 107.461C36.1672 107.461 27.2377 98.4432 27.2377 87.3067C27.2377 80.0235 28.9837 73.7391 31.2385 68.6651C35.0997 59.9596 35.7083 50.1143 32.5954 41.1062C29.1234 31.0693 28.8041 23.8164 28.8041 23.8164C23.2867 29.0921 0 61.2004 0 87.3067C0 103.467 7.95181 117.74 20.104 126.365C51.562 133.467 76.4451 108.097 65.0811 79.6402Z" fill="url(#paint1_linear)"/>
</g>
<path d="M182.523 65.5688C190.029 65.5688 196.09 65.5688 196.09 65.5688V73.724C198.586 68.5514 203.073 65.5688 209.857 65.5688H214.538V78.7971H206.663C199.381 78.7971 196.19 82.5778 196.19 91.8265V115.3H182.523V65.5688Z" fill="#F2F2F2"/>
<path d="M214.818 90.4345C214.818 76.1126 226.291 64.5745 240.657 64.5745C255.022 64.5745 266.495 76.1126 266.495 90.4345C266.495 104.756 255.022 116.294 240.657 116.294C226.291 116.294 214.818 104.756 214.818 90.4345ZM253.227 90.4345C253.227 83.3729 247.64 77.5045 240.657 77.5045C233.574 77.5045 228.186 83.3702 228.186 90.4345C228.186 97.496 233.574 103.364 240.657 103.364C247.64 103.364 253.227 97.496 253.227 90.4345Z" fill="#F2F2F2"/>
<path d="M271.985 65.5687H285.553V70.8406C288.647 66.9605 293.234 64.5745 298.821 64.5745C305.904 64.5745 311.192 67.361 314.186 72.4313C317.58 67.6564 323.264 64.5745 329.748 64.5745C342.418 64.5745 348.701 72.1331 348.701 84.9636V115.3H334.834V86.7532C334.834 80.0894 332.239 76.212 326.153 76.212C320.965 76.212 317.175 79.7911 317.175 88.1478V115.3H303.306V86.7532C303.306 80.0894 300.713 76.212 294.627 76.212C289.439 76.212 285.65 79.7911 285.65 88.1478V115.3H271.983V65.5687H271.985Z" fill="#F2F2F2"/>
<path d="M411.968 63.1191C411.968 54.9391 418.704 50.9513 425.635 48.7393V65.5687H437.05V77.8028H425.635V94.7592C425.635 102.517 428.119 102.994 437.05 102.489V115.22C437.05 115.22 434.546 115.726 432.183 115.726C416.411 115.726 411.97 110.973 411.97 94.7592V63.1191H411.968Z" fill="#F2F2F2"/>
<path d="M443.127 44.7239H456.695V71.0395C459.985 67.06 464.775 64.5745 470.461 64.5745C482.234 64.5745 489.317 72.1332 489.317 84.9637V115.3H475.447V86.8555C475.447 80.0922 472.353 76.2121 466.268 76.2121C461.079 76.2121 456.791 79.7912 456.791 88.1479V115.3H443.124V44.7239H443.127Z" fill="#F2F2F2"/>
<path d="M550.573 90.4345C550.573 72.829 563.542 64.5745 574.816 64.5745C581.297 64.5745 586.389 66.9605 589.679 70.4429V65.5687H603.347V115.3H589.679V109.73C586.389 113.61 581.101 116.297 574.613 116.297C564.04 116.294 550.573 107.938 550.573 90.4345ZM590.078 90.335C590.078 82.9753 584.691 77.0074 577.309 77.0074C569.727 77.0074 563.941 82.677 563.941 90.335C563.941 97.9931 569.727 103.762 577.309 103.762C584.691 103.762 590.078 97.6948 590.078 90.335Z" fill="#F2F2F2"/>
<path d="M610.834 65.5687H624.401V71.139C627.592 67.06 632.481 64.5718 638.168 64.5718C649.941 64.5718 657.024 72.1304 657.024 84.961V115.298H643.154V86.7533C643.154 80.0894 640.06 76.2121 633.974 76.2121C628.786 76.2121 624.498 79.7912 624.498 88.1479V115.3H610.831V65.5687H610.834Z" fill="#F2F2F2"/>
<path d="M151.909 44.7239H124.405V115.298H138.272V57.5517H150.911C158.792 57.5517 164.18 63.4202 164.18 70.6805C164.18 77.9409 158.792 83.8094 150.911 83.8094H138.953C138.953 83.8094 144.178 99.5507 159.98 95.4442C170.819 92.144 178.146 82.3567 178.146 70.6805C178.143 56.2592 166.969 44.7239 151.909 44.7239Z" fill="#F2F2F2"/>
<path d="M494.563 90.1611C494.707 75.1764 507.942 63.445 522.923 64.6739C536.861 65.8145 546.238 76.7865 546.238 90.3351V95.3088H507.729C509.325 100.78 513.815 104.359 520.997 104.359C523.46 104.359 525.74 103.759 527.704 102.666C531.72 100.432 536.485 99.9787 540.748 101.696L544.141 103.063C539.85 110.824 531.969 116.294 520.898 116.294C505.236 116.294 494.425 104.61 494.563 90.1611ZM508.327 84.3672H532.471C530.676 79.1946 526.385 76.5103 520.599 76.5103C514.815 76.5103 510.424 79.6917 508.327 84.3672Z" fill="#F2F2F2"/>
<path d="M354.446 90.1611C354.59 75.1764 367.825 63.445 382.805 64.6739C396.744 65.8145 406.12 76.7865 406.12 90.3351V95.3088H367.611C369.207 100.78 373.697 104.359 380.88 104.359C383.342 104.359 385.622 103.759 387.586 102.666C391.602 100.432 396.367 99.9787 400.63 101.696L404.023 103.063C399.732 110.824 391.852 116.294 380.78 116.294C365.121 116.294 354.307 104.61 354.446 90.1611ZM368.213 84.3672H392.356C390.561 79.1946 386.27 76.5103 380.484 76.5103C374.697 76.5103 370.307 79.6917 368.213 84.3672Z" fill="#F2F2F2"/>
<defs>
<linearGradient id="paint0_linear" x1="0" y1="67.4991" x2="94.3373" y2="67.4991" gradientUnits="userSpaceOnUse">
<stop stop-color="#FF3800"/>
<stop offset="0.5025" stop-color="#F71C00"/>
<stop offset="1" stop-color="#EF0000"/>
</linearGradient>
<linearGradient id="paint1_linear" x1="56.5802" y1="118.361" x2="-0.0833816" y2="46.628" gradientUnits="userSpaceOnUse">
<stop stop-color="#990000"/>
<stop offset="0.4" stop-color="#FF0000" stop-opacity="0"/>
</linearGradient>
<clipPath id="clip0">
<rect width="94.3342" height="135" fill="white"/>
</clipPath>
</defs>
</svg>
